<svg width="25" height="24" viewBox="0 0 25 24" fill="none" xmlns="http://www.w3.org/2000/svg">
<path d="M12.2851 10.87C12.1851 10.86 12.0651 10.86 11.9551 10.87C9.57506 10.79 7.68506 8.84 7.68506 6.44C7.68506 3.99 9.66506 2 12.1251 2C14.5751 2 16.5651 3.99 16.5651 6.44C16.5551 8.84 14.6651 10.79 12.2851 10.87Z" stroke="#A3A5AE" stroke-width="1.5" stroke-linecap="round" stroke-linejoin="round"/>
<path d="M7.28521 14.56C4.86521 16.18 4.86521 18.82 7.28521 20.43C10.0352 22.27 14.5452 22.27 17.2952 20.43C19.7152 18.81 19.7152 16.17 17.2952 14.56C14.5552 12.73 10.0452 12.73 7.28521 14.56Z" stroke="#A3A5AE" stroke-width="1.5" stroke-linecap="round" stroke-linejoin="round"/>
</svg>
