<svg width="25" height="24" viewBox="0 0 25 24" fill="none" xmlns="http://www.w3.org/2000/svg">
<path d="M2.375 2H4.11501C5.19501 2 6.045 2.93 5.955 4L5.125 13.96C4.985 15.59 6.27499 16.99 7.91499 16.99H18.565C20.005 16.99 21.265 15.81 21.375 14.38L21.915 6.88C22.035 5.22 20.775 3.87 19.105 3.87H6.19501" stroke="#A3A5AE" stroke-width="1.5" stroke-miterlimit="10" stroke-linecap="round" stroke-linejoin="round"/>
<path d="M16.625 22C17.3154 22 17.875 21.4404 17.875 20.75C17.875 20.0596 17.3154 19.5 16.625 19.5C15.9346 19.5 15.375 20.0596 15.375 20.75C15.375 21.4404 15.9346 22 16.625 22Z" stroke="#A3A5AE" stroke-width="1.5" stroke-miterlimit="10" stroke-linecap="round" stroke-linejoin="round"/>
<path d="M8.625 22C9.31536 22 9.875 21.4404 9.875 20.75C9.875 20.0596 9.31536 19.5 8.625 19.5C7.93464 19.5 7.375 20.0596 7.375 20.75C7.375 21.4404 7.93464 22 8.625 22Z" stroke="#A3A5AE" stroke-width="1.5" stroke-miterlimit="10" stroke-linecap="round" stroke-linejoin="round"/>
<path d="M9.375 8H21.375" stroke="#A3A5AE" stroke-width="1.5" stroke-miterlimit="10" stroke-linecap="round" stroke-linejoin="round"/>
</svg>
